# xmcd
#
# Track frame offsets:
#	150
#	15132
#	43276
#	63756
#	81493
#	101373
#	122321
#	137813
#	153752
#	171552
#	187733
#	202823
#
# Disc length: 2862 seconds
#
# Revision: 1
# Processed by: cddbd v1.4PL0 Copyright (c) Steve Scherf et al.
# Submitted via: EasyCDDAExtractor 5.1.0
#
DISCID=8c0b2c0c
DTITLE=John Mellencamp - Trouble No More
DYEAR=2003
DGENRE=Blues
TTITLE0=Stones In My Pathway
TTITLE1=Death Letter
TTITLE2=Johnny Hart
TTITLE3=Baltimore Oriole
TTITLE4=Teardrops Will Fall 
TTITLE5=Diamond Joe
TTITLE6=The End Of The World 
TTITLE7=Down In The Bottom
TTITLE8=Lafayette
TTITLE9=Joliet Bound
TTITLE10=John The Revelator
TTITLE11=To Washington
EXTD=
EXTT0=
EXTT1=
EXTT2=
EXTT3=
EXTT4=
EXTT5=
EXTT6=
EXTT7=
EXTT8=
EXTT9=
EXTT10=
EXTT11=
PLAYORDER=
